<svg width="800" height="600" viewBox="0 0 800 600" xmlns="http://www.w3.org/2000/svg" role="img" aria-label="Dashboard preview">
  <defs>
    <linearGradient id="panel" x1="0" y1="0" x2="1" y2="1">
      <stop offset="0%" stop-color="#0f172a" />
      <stop offset="100%" stop-color="#1e3a8a" />
    </linearGradient>
  </defs>
  <rect width="800" height="600" rx="32" fill="#0b1020" />
  <rect x="40" y="40" width="720" height="520" rx="24" fill="#ffffff" />
  <rect x="80" y="80" width="180" height="28" rx="14" fill="#e2e8f0" />
  <rect x="80" y="130" width="640" height="18" rx="9" fill="#cbd5f5" />
  <rect x="80" y="180" width="220" height="140" rx="20" fill="url(#panel)" />
  <rect x="320" y="180" width="200" height="140" rx="20" fill="#eef2ff" />
  <rect x="540" y="180" width="180" height="140" rx="20" fill="#e0f2fe" />
  <rect x="80" y="340" width="640" height="180" rx="20" fill="#f1f5f9" />
  <rect x="110" y="370" width="200" height="20" rx="10" fill="#94a3b8" />
  <rect x="110" y="410" width="520" height="12" rx="6" fill="#cbd5f5" />
  <rect x="110" y="440" width="480" height="12" rx="6" fill="#cbd5f5" />
  <rect x="110" y="470" width="320" height="12" rx="6" fill="#cbd5f5" />
</svg>
